<?xml version="1.0" encoding="UTF-8"?>
<!DOCTYPE svg PUBLIC "-//W3C//DTD SVG 1.1//EN" "http://www.w3.org/Graphics/SVG/1.1/DTD/svg11.dtd">
<!-- Creator: CorelDRAW X7 -->
<svg xmlns="http://www.w3.org/2000/svg" xml:space="preserve" width="25.9536mm" height="7.5975mm" version="1.1" style="shape-rendering:geometricPrecision; text-rendering:geometricPrecision; image-rendering:optimizeQuality; fill-rule:evenodd; clip-rule:evenodd"
viewBox="0 0 2595 760"
 xmlns:xlink="http://www.w3.org/1999/xlink">
 <defs>
  <style type="text/css">
   <![CDATA[
    .fil0 {fill:white}
   ]]>
  </style>
 </defs>
 <g id="Слой_x0020_1">
  <metadata id="CorelCorpID_0Corel-Layer"/>
  <path class="fil0" d="M2150 493c9,-53 113,-126 125,-183 -28,-17 -12,8 -39,-7 -12,-7 -19,-29 -79,-7 -33,13 -78,49 -102,68 -31,25 -64,52 -94,74 -30,22 -68,50 -115,56 21,-48 125,-135 132,-192 -23,2 -22,4 -35,14 -9,-15 -7,-18 -18,-31 -106,-9 -161,97 -261,119 12,-29 44,-61 25,-100 -31,-20 -38,-1 -61,3 -27,4 -23,-11 -53,11 -28,21 -61,49 -87,70 -42,35 -127,112 -194,116 -2,-29 48,-73 67,-93 84,-88 40,-120 39,-117l-22 -3c-10,1 -21,7 -28,12 -84,54 -223,224 -303,195 12,-73 166,-173 115,-196 -44,-5 -150,179 -220,183 5,-71 121,-134 113,-182 -37,-22 -62,17 -88,39 -60,50 -179,164 -259,157 6,-57 143,-162 123,-201 -17,-18 -33,-3 -47,17 -11,17 -22,34 -33,52 -26,41 -56,46 -128,40 15,-30 64,-74 63,-108 -33,-11 -67,47 -104,94 -17,22 -31,36 -50,60 -15,20 -39,42 -20,66 27,-5 12,-1 28,-19l66 -77 111 -5c-14,24 -45,60 -39,90 85,56 236,-118 285,-139 -6,9 -99,115 -43,137 38,16 80,-42 108,-54 -46,184 219,-38 255,-74 14,-13 27,-23 42,-35 16,-13 25,-23 46,-22l9 2c-13,43 -109,94 -117,159 -2,22 1,20 11,30 56,36 174,-79 208,-96 -8,28 -25,52 -16,83 37,86 177,-72 177,-72 2,-1 71,-25 77,-26 -95,199 104,48 107,47 -58,95 -70,38 -202,116 -228,136 -158,342 123,39 16,-16 32,-35 49,-55 40,-50 3,-24 69,-42 52,-14 96,-58 135,-79 -32,156 123,21 130,16 -5,22 -12,39 -5,61 83,28 198,-94 285,-156l-262 292c-15,18 -26,29 -23,61 34,-1 51,-33 66,-51l117 -130c19,-24 44,-42 57,-66l12 26c17,36 21,21 76,28 9,1 19,3 29,2 26,-1 24,-10 25,-11l-44 -5c25,-33 161,-101 125,-204 -36,-6 -59,10 -88,21 9,-17 26,-37 23,-53 -2,-1 -4,-4 -5,-2 -1,2 -4,-1 -5,-2 -6,0 -9,0 -14,1 -3,1 -20,15 -23,17 -71,59 -250,220 -327,221zm-532 -64c-1,-2 -3,-5 -3,-4 0,1 -27,-12 -30,-61 -18,13 -87,72 -79,115 11,56 106,-45 112,-50zm-9 -27c28,7 35,-4 49,-26 13,-21 20,-35 17,-64 -46,-5 -81,45 -66,90zm154 124c-145,28 -329,218 -237,214 49,-1 217,-183 237,-214zm-31 -44c48,-7 86,-49 115,-72 27,-21 76,-57 75,-105 -51,-7 -185,117 -190,177zm302 -2c31,1 46,-13 64,-28 22,-17 33,-26 50,-41 22,-18 80,-66 70,-103 -39,-8 -181,119 -184,172zm371 -66c4,14 13,41 26,56 50,-27 132,-117 126,-155 -46,-18 -119,73 -152,99zm-2113 -260c50,-11 141,-112 191,-114l-306 332c-46,53 -160,157 -177,212l18 17c40,-7 84,-83 133,-132l98 -103c14,-13 22,-24 36,-35 15,29 26,133 33,173 16,89 12,103 106,93 -33,-41 -36,20 -59,-113 -8,-49 -17,-100 -22,-150l307 -147c50,-24 100,-50 152,-75 40,-19 136,-44 137,-93 -45,-7 -267,117 -316,143l-269 140c-25,10 -6,8 -31,-8 12,-29 100,-112 125,-139 22,-25 37,-45 61,-70 23,-23 54,-39 56,-76 -54,-35 -147,44 -213,89 -24,16 -53,29 -60,56z"/>
 </g>
</svg>
